<?xml version="1.0" encoding="UTF-8" standalone="no"?>
<svg width="766px" height="100px" viewBox="0 0 766 100" version="1.1" xmlns="http://www.w3.org/2000/svg" xmlns:xlink="http://www.w3.org/1999/xlink">
    <!-- Generator: Sketch 41.2 (35397) - http://www.bohemiancoding.com/sketch -->
    <title>skills</title>
    <desc>Created with Sketch.</desc>
    <defs>
        <rect id="path-1" x="0" y="0" width="766" height="100" rx="8"></rect>
        <mask id="mask-2" maskContentUnits="userSpaceOnUse" maskUnits="objectBoundingBox" x="0" y="0" width="766" height="100" fill="white">
            <use xlink:href="#path-1"></use>
        </mask>
    </defs>
    <g id="Page-1" stroke="none" stroke-width="1" fill="none" fill-rule="evenodd">
        <g id="Desktop" transform="translate(-130.000000, -544.000000)">
            <g id="skills" transform="translate(130.000000, 544.000000)">
                <use id="Rectangle-3" stroke="#979797" mask="url(#mask-2)" stroke-width="2" fill="#D8D8D8" opacity="0.45" xlink:href="#path-1"></use>
                <g id="angular" transform="translate(168.000000, 5.000000)">
                    <g id="Layer_1">
                        <g id="Group">
                            <polygon id="Shape" fill="#DD0031" points="44.5 0 44.5 0 44.5 0 0.42606383 15.77 7.14840426 74.2425 44.5 95 44.5 95 44.5 95 81.8515957 74.2425 88.5739362 15.77"></polygon>
                            <polygon id="Shape" fill="#C3002F" points="44.5 0 44.5 10.545 44.5 10.4975 44.5 58.615 44.5 58.615 44.5 95 44.5 95 81.8515957 74.2425 88.5739362 15.77"></polygon>
                            <path d="M44.5,10.4975 L16.9478723,72.485 L16.9478723,72.485 L27.2207447,72.485 L27.2207447,72.485 L32.7595745,58.615 L56.1457447,58.615 L61.6845745,72.485 L61.6845745,72.485 L71.9574468,72.485 L71.9574468,72.485 L44.5,10.4975 L44.5,10.4975 L44.5,10.4975 L44.5,10.4975 L44.5,10.4975 Z M52.5478723,50.065 L36.4521277,50.065 L44.5,30.6375 L52.5478723,50.065 Z" id="Shape" fill="#FFFFFF"></path>
                        </g>
                    </g>
                </g>
                <g id="JS-symbol" transform="translate(66.000000, 9.000000)" fill="#000000">
                    <g id="Capa_1">
                        <g id="Group">
                            <path d="M59.8629426,19.8833956 C59.8598005,19.5021379 59.7383042,19.1270563 59.4788529,18.8301543 L43.5897756,0.556446461 C43.5849875,0.551324864 43.5803491,0.549667877 43.5770574,0.544998185 C43.4823441,0.438499093 43.3719202,0.34992559 43.255212,0.273252269 C43.2206484,0.249903811 43.1857855,0.230321234 43.1495761,0.209684211 C43.0484289,0.154551724 42.9411471,0.108005445 42.8307232,0.0747150635 C42.800798,0.0667313975 42.7738653,0.0543793103 42.7439401,0.0463956443 C42.6239401,0.0179255898 42.4993017,0 42.3730175,0 L3.32169576,0 C1.53845387,0 0.0897755611,1.46010708 0.0897755611,3.25387114 L0.0897755611,79.7163031 C0.0897755611,81.5099165 1.53845387,82.9701742 3.32169576,82.9701742 L56.6483791,82.9701742 C58.4299751,82.9701742 59.8802993,81.5100672 59.8802993,79.7163031 L59.8802993,20.0649111 C59.8802993,20.0037532 59.8708728,19.9438004 59.8629426,19.8833956 Z M26.4237905,70.7732414 C26.4237905,76.5038566 23.6968579,78.5024846 19.3093766,78.5024846 C18.2709726,78.5024846 16.9071322,78.3244338 16.0179052,78.0258748 L16.5228928,74.3542922 C17.1450374,74.564127 17.944788,74.7134065 18.8343142,74.7134065 C20.7315711,74.7134065 21.91601,73.8458984 21.91601,70.7129873 L21.91601,58.0602323 L26.4230424,58.0602323 L26.4230424,70.7732414 L26.4237905,70.7732414 L26.4237905,70.7732414 Z M35.0790524,78.4722069 C32.7972569,78.4722069 30.545985,77.8747877 29.4188529,77.2488984 L30.3372569,73.4882904 C31.5519202,74.1158367 33.4204489,74.741726 35.347182,74.741726 C37.4223441,74.741726 38.517606,73.8775318 38.517606,72.5636915 C38.517606,71.3101053 37.5691272,70.5936842 35.1688279,69.7293394 C31.8486284,68.5649292 29.6854863,66.7155808 29.6854863,63.7906969 C29.6854863,60.3590762 32.5303242,57.732902 37.2433915,57.732902 C39.4961596,57.732902 41.1570075,58.2095118 42.3420449,58.7480327 L41.3359601,62.4179583 C40.534414,62.0303739 39.1125187,61.4630817 37.1549626,61.4630817 C35.1998005,61.4630817 34.2496758,62.3599637 34.2496758,63.4029619 C34.2496758,64.6850181 35.3772569,65.2538167 37.9565087,66.2371633 C41.4827431,67.5511543 43.1437406,69.4003521 43.1437406,72.2345535 C43.1431421,75.6077278 40.5629925,78.4722069 35.0790524,78.4722069 Z M56.6485287,55.2450109 L3.32169576,55.2450109 L3.32169576,3.25387114 L40.7570574,3.25387114 L40.7570574,19.9005681 C40.7570574,20.7994083 41.4813965,21.5274283 42.3730175,21.5274283 L56.6483791,21.5274283 L56.6483791,55.2450109 L56.6485287,55.2450109 Z" id="Shape"></path>
                            <path d="M14.8722195,19.0937659 C14.8722195,20.5000962 15.8652868,21.6437187 17.085187,21.6437187 C17.4299252,21.6437187 17.7104738,21.3207568 17.7104738,20.9223267 C17.7104738,20.5235953 17.4291771,20.2015372 17.085187,20.2015372 C16.5561097,20.2015372 16.1236908,19.7045917 16.1236908,19.0937659 C16.1236908,18.4820363 16.5561097,17.9856933 17.085187,17.9856933 L17.0907232,17.9856933 C17.2102743,17.9856933 18.2833915,17.9582777 18.2916209,18.9734083 L18.2916209,46.6387695 C18.2916209,47.831951 19.1335661,48.8026443 20.1683791,48.8026443 L23.5080299,48.8026443 C23.5068329,48.7963176 23.5068329,48.7898403 23.5060848,48.7851706 L40.5679302,48.7851706 C41.9281796,48.7851706 43.0328678,47.5118512 43.0328678,45.9429855 C43.0328678,44.6402922 42.2660349,43.5408058 41.2244888,43.2088058 C41.225985,43.2024791 41.2276309,43.1993158 41.2276309,43.1944955 L41.2339152,43.1944955 L41.2339152,18.7066334 C41.2339152,17.5134519 40.3928678,16.5436624 39.357606,16.5436624 L17.0672319,16.5436624 L17.0664838,16.5436624 C15.8651372,16.542608 14.8722195,17.6874356 14.8722195,19.0937659 Z M23.4146633,45.9589528 C23.4146633,45.3996443 23.2490274,44.9310181 23.0115711,44.5434338 L38.9075312,44.5434338 C39.5766584,44.5434338 40.1209975,45.17098 40.1209975,45.9431361 C40.1209975,46.7167985 39.5765087,47.3435917 38.9075312,47.3435917 L23.0277307,47.3435917 C23.2557606,46.9660998 23.4146633,46.5069637 23.4146633,45.9589528 Z M22.8086783,32.673078 L37.4533167,32.673078 L37.4533167,33.9947514 L22.8086783,33.9947514 L22.8086783,32.673078 Z M22.8086783,27.894176 L37.4533167,27.894176 L37.4533167,29.216 L22.8086783,29.216 L22.8086783,27.894176 Z M22.8086783,23.0135953 L37.4533167,23.0135953 L37.4533167,24.3352686 L22.8086783,24.3352686 L22.8086783,23.0135953 Z" id="Shape"></path>
                        </g>
                    </g>
                </g>
            </g>
        </g>
    </g>
</svg>